<svg width="2138" height="1086" viewBox="0 0 2138 1086" fill="none" xmlns="http://www.w3.org/2000/svg" opacity="15%">
  <g stroke="white" stroke-linecap="round">
    <g stroke-width="50">
      <path
        d="M97.7042 505.041C94.4328 555.544 92.8407 602.332 100.591 652.412C111.117 720.425 132.56 792.357 158.726 855.949C200.676 957.903 323.677 1029.19 419.479 949.647C520.323 865.914 541.769 704.183 534.305 581.023C531.891 541.18 529.208 497.417 515.802 459.373C513.362 452.45 506.353 446.29 506.353 438.901" />
      <path
        d="M744.929 420.005C793.232 468.988 838.706 520.636 882.982 573.281C942.874 644.493 1004.26 714.337 1064.34 785.348C1100.35 827.906 1133.25 872.762 1170.9 913.953C1191.5 936.492 1172.21 884.027 1170.11 875.896" />
      <path
        d="M1052.01 431.815C990.604 550.199 917.693 661.828 861.985 783.248C838.746 833.901 811.068 894.342 811.068 951.485" />
      <path
        d="M1302.39 450.712C1324.08 490.59 1343.33 528.711 1355.67 572.493C1368.18 616.86 1378.18 661.879 1390.32 706.348C1405.7 762.693 1422.63 818.71 1434.67 875.896" />
      <path
        d="M1304.75 436.539C1337.19 418.098 1370.26 395.921 1408.43 392.578C1442.97 389.551 1477.37 397.859 1506.59 416.593C1572.14 458.618 1609.82 524.547 1606.32 602.939C1602.79 681.993 1559.22 756.528 1503.17 810.544C1487.56 825.591 1459.52 856.525 1437.03 840.464" />
      <path
        d="M1753.56 337.33C1784.69 384.875 1820.47 427.694 1853.82 473.546C1877.5 506.109 1901.4 538.865 1928.36 568.819" />
      <path
        d="M2013.4 318.433C2000.53 344.525 1987.6 365.105 1967.33 385.885C1953.45 400.117 1940.25 414.406 1931.77 432.603C1919.44 459.066 1918.66 493.152 1926 520.92C1954.38 628.357 1958.63 740.313 1973.24 849.913" />
    </g>

    <g stroke-width="20">
      <path
        d="M1600.33 124.041C1583.54 121.116 1569.85 118.03 1554.51 126.552C1544.19 132.286 1534.09 142.687 1533.89 155.242C1533.12 202.693 1599.95 221.163 1636.46 218.092C1667.44 215.486 1725.49 190.326 1704.51 149.863C1688.87 119.704 1642.6 104.706 1611.62 115.972" />
      <path
        d="M1527.7 146.635C1514.41 145.975 1497.42 142.821 1484.85 149.325C1477.93 152.904 1469.48 163.377 1475.61 170.843C1484.4 181.535 1501.55 188.169 1514.79 183.753" />
      <path
        d="M1724.59 161.16C1734.07 160.022 1758.06 153.196 1763.32 166.36C1766.37 173.978 1759.2 182.117 1753.64 186.622C1745.33 193.358 1736.54 191.822 1726.2 191.822" />
      <path
        d="M1563.21 117.586C1563.83 99.2651 1561.23 80.2883 1540.43 75.0885C1532.53 73.1129 1515.56 73.8772 1511.92 83.337C1510.77 86.3451 1516.9 84.9884 1516.05 80.2887C1514 69.0411 1498.04 65.194 1488.97 63.0744C1479.22 60.7957 1464.14 58.6799 1456.16 66.6607C1453.12 69.6966 1455.63 68.3262 1447.91 64.6883C1432.21 57.2883 1389.81 62.9888 1401.02 89.882C1401.98 92.1991 1395.76 85.2452 1395.73 85.2198C1388.82 79.6902 1382.26 77.4351 1373.49 77.2403C1360.68 76.9557 1346.93 78.2775 1338.17 88.8958C1330.41 98.301 1326.21 110.779 1331.53 122.428C1337.33 135.117 1336.86 126.239 1326.87 126.373C1299.38 126.739 1265.33 157.608 1273.08 186.264C1273.86 189.154 1277.39 192.01 1279.89 193.436C1280.37 193.711 1270.98 211.252 1270.48 213.878C1266.55 234.354 1276.76 252.742 1294.41 262.831C1297.85 264.792 1292.8 278.607 1293.16 281.839C1294.8 296.415 1309.23 309.825 1322.84 313.129C1339.05 317.067 1356.79 311.711 1370.8 303.536C1379.67 298.364 1377.89 304.158 1384.34 311.067C1402.66 330.691 1431.32 322.671 1453.11 316.446C1457.35 315.235 1468.33 323.703 1473.01 324.874C1485.69 328.045 1498.7 326.562 1509.59 318.957C1511.91 317.338 1517.83 308.198 1520.53 308.198C1533.25 308.198 1542.71 314.249 1555.94 309.543C1566.32 305.855 1576.44 299.487 1580.96 289.011C1583.97 282.034 1585.65 285.23 1592.44 281.839C1600.63 277.74 1611.26 269.301 1612.88 259.603C1614.2 251.684 1607.83 244.124 1605.17 237.01" />
      <path d="M1346.95 309.632C1348.08 331.957 1344.58 355.485 1348.57 377.413" />
      <path
        d="M1398.6 319.315C1397.84 335.868 1396.98 352.412 1396.98 368.985C1396.98 372.983 1396.63 376.079 1398.6 379.027" />
      <path d="M1518.02 324.157C1517.69 330.174 1511.54 391.938 1518.02 391.938" />
      <path d="M1566.44 312.86C1561.13 344.868 1551.91 377.156 1551.91 409.69" />
    </g>
  </g>

  <g fill="white">
    <circle cx="1581.79" cy="158.693" r="10" />
    <circle cx="1666.79" cy="162.693" r="10" />
  </g>
</svg>
