<svg width="474" height="309" viewBox="0 0 474 309" fill="none" xmlns="http://www.w3.org/2000/svg">
  <g stroke="black" stroke-width="5" stroke-linecap="round">

    <path
      d="M132.853 88.0422C108.241 97.768 80.7634 112.985 91.8019 144.421C107.147 188.123 169.409 179.631 201.773 162.428C216.399 154.653 234.583 141.829 236.876 123.842C239.154 105.971 221.538 93.0525 207.507 86.3272C184.233 75.1709 148.057 69.0363 126.101 86.1129" />
    <path d="M137.677 138.204C151.398 137.368 163.994 135.657 176.263 129.522" />
    <path
      d="M76.9033 136.275C70.5752 138.061 62.0676 139.285 57.3422 144.421C55.7524 146.149 54.6254 149.117 57.503 150.209C66.2792 153.538 75.4776 149.86 83.6559 146.886" />
    <path
      d="M250.542 108.3C256.09 107.707 265.709 104.907 270.21 109.8C272.532 112.324 272.376 114.655 269.621 116.767C267.702 118.238 258.978 124.208 257.295 120.84" />
    <path
      d="M133.818 181.614C128.212 193.427 125.14 203.233 130.549 215.698C133.736 223.043 143.069 225.621 149.521 220.307C152.222 218.083 148.595 218.566 147.324 222.022C143.603 232.137 147.062 247.084 155.47 253.963C161.76 259.11 169.844 258.178 175.995 253.052C178.771 250.739 177.415 247.361 175.781 250.265C172.446 256.195 178.142 263.375 183.23 266.075C191.234 270.322 204.3 265.684 210.562 259.751C211.203 259.144 211.821 256.628 211.956 257.5C212.548 261.352 212.898 264.878 215.118 268.272C223.037 280.384 242.175 279.838 254.293 276.472C265.722 273.297 275.346 267.319 283.876 259.215C287.069 256.182 299.243 268.509 303.598 269.934C318.847 274.923 336.79 269.781 349.848 261.52C357.977 256.377 365.594 250.244 371.982 243.031C374.584 240.092 376.94 234.693 380.289 232.526C381.989 231.426 385.157 233.577 386.666 234.134C391.233 235.822 395.644 235.72 400.278 234.241C412.229 230.429 421.525 219.71 423.752 207.338C424.877 201.085 421.122 195.705 417.106 191.421C413.618 187.7 417.887 189.423 422.358 187.187C444.561 176.086 436.556 143.835 418.821 132.095C417.755 131.389 410.231 128.935 410.246 128.879C412.694 119.904 398.561 107.185 391.864 103.691C382.481 98.795 368.609 96.455 359.227 102.512C352.851 106.628 356.206 110.472 350.438 102.726C342.361 91.8799 323.819 75.2247 309.922 86.595C306.856 89.1036 307.183 87.2661 303.705 84.7193C297.024 79.8261 288.836 76.4799 280.446 77.6452C275.95 78.2697 273.963 81.1661 270.371 83.2187C266.784 85.2684 266.258 84.0861 261.475 82.2541C250.085 77.8921 239.28 78.4077 232.213 89.0067" />
    <path d="M177.228 264.574C177.829 276.834 175.481 295.105 182.051 306.055" />
    <path d="M191.698 266.504C192.422 279.381 193.627 292.19 193.627 305.09" />
    <path d="M340.255 264.574C340.491 269.262 338.831 303.161 347.972 303.161" />
    <path d="M363.407 254.928C364.363 271.412 364.928 287.763 367.266 304.126" />
    <path
      d="M39.1584 92.6309C34.6676 93.34 18.0521 94.2478 22.8664 103.189C26.1724 109.328 33.7936 106.129 37.1219 101.742C41.2645 96.2809 39.8938 90.2531 39.1584 84.0025C38.77 80.7013 39.4395 73.7794 37.6578 70.9797C34.1649 65.491 32.9798 64.592 41.0877 63.6911C47.8819 62.9362 56.1708 58.8188 62.7925 61.7618C69.3728 64.6864 67.419 80.4105 68.8484 86.8429C69.8633 91.4099 70.915 95.529 68.0982 99.5978C61.1987 109.564 50.9093 89.7369 64.2395 89.7369" />
    <path
      d="M238.966 34.0212C235.063 28.1362 231.607 20.8722 225.997 16.2822C223.545 14.2765 225.801 23.5837 225.997 24.589C227.271 31.1426 228.058 37.8224 229.105 44.4181C229.573 47.363 230.992 50.5448 229.534 53.3144C226.182 59.6837 220.399 56.9106 217.261 51.3315C213.885 45.3293 221.642 41.4437 226.425 44.6325" />
  </g>
  <g fill="black">

    <circle cx="117" cy="130.715" r="5" />
    <circle cx="199" cy="116.715" r="5" />
  </g>
</svg>
